solid OpenSCAD_Model
  facet normal -1 0 0
    outer loop
      vertex 2.2 3 0.2
      vertex 2.2 4.2 10
      vertex 2.2 4.2 0.2
    endloop
  endfacet
  facet normal -1 -0 0
    outer loop
      vertex 2.2 4.2 10
      vertex 2.2 3 0.2
      vertex 2.2 3 10
    endloop
  endfacet
  facet normal -1 0 0
    outer loop
      vertex 2.2 3 -2
      vertex 2.2 4.2 -1
      vertex 2.2 4.2 -2
    endloop
  endfacet
  facet normal -1 -0 0
    outer loop
      vertex 2.2 4.2 -1
      vertex 2.2 3 -2
      vertex 2.2 3 -1
    endloop
  endfacet
  facet normal -1 0 0
    outer loop
      vertex 2.2 3 75.4
      vertex 2.2 4.2 78.4
      vertex 2.2 4.2 75.4
    endloop
  endfacet
  facet normal -1 -0 0
    outer loop
      vertex 2.2 4.2 78.4
      vertex 2.2 3 75.4
      vertex 2.2 3 78.4
    endloop
  endfacet
  facet normal 1 -0 0
    outer loop
      vertex 1 3 10
      vertex 1 4.2 -2
      vertex 1 4.2 10
    endloop
  endfacet
  facet normal 1 0 0
    outer loop
      vertex 1 4.2 -2
      vertex 1 3 10
      vertex 1 3 -2
    endloop
  endfacet
  facet normal 1 -0 0
    outer loop
      vertex 1 3 78.4
      vertex 1 4.2 75.4
      vertex 1 4.2 78.4
    endloop
  endfacet
  facet normal 1 0 0
    outer loop
      vertex 1 4.2 75.4
      vertex 1 3 78.4
      vertex 1 3 75.4
    endloop
  endfacet
  facet normal 0 1 0
    outer loop
      vertex 6.2 3 2
      vertex 5 3 0.2
      vertex 6 3 2
    endloop
  endfacet
  facet normal 0 1 0
    outer loop
      vertex 5 3 0.2
      vertex 5 3 -1
      vertex 2.2 3 0.2
    endloop
  endfacet
  facet normal 0 1 -0
    outer loop
      vertex 6.2 3 -2
      vertex 5 3 0.2
      vertex 6.2 3 2
    endloop
  endfacet
  facet normal 0 1 0
    outer loop
      vertex 5 3 0.2
      vertex 6.2 3 -2
      vertex 5 3 -1
    endloop
  endfacet
  facet normal 0 1 0
    outer loop
      vertex 5 3 -1
      vertex 6.2 3 -2
      vertex 5 3 -2
    endloop
  endfacet
  facet normal 0 1 0
    outer loop
      vertex 6 3 6
      vertex 6.2 3 10
      vertex 6.2 3 6
    endloop
  endfacet
  facet normal 0 1 0
    outer loop
      vertex 6.2 3 10
      vertex 6 3 6
      vertex 5 3 10
    endloop
  endfacet
  facet normal 0 1 0
    outer loop
      vertex 5 3 0.2
      vertex 6 3 6
      vertex 6 3 2
    endloop
  endfacet
  facet normal 0 1 0
    outer loop
      vertex 6 3 6
      vertex 5 3 0.2
      vertex 5 3 10
    endloop
  endfacet
  facet normal 0 1 -0
    outer loop
      vertex 2.2 3 0.2
      vertex 1 3 10
      vertex 2.2 3 10
    endloop
  endfacet
  facet normal 0 1 0
    outer loop
      vertex 2.2 3 -1
      vertex 2.2 3 0.2
      vertex 5 3 -1
    endloop
  endfacet
  facet normal 0 1 0
    outer loop
      vertex 1 3 -2
      vertex 2.2 3 0.2
      vertex 2.2 3 -1
    endloop
  endfacet
  facet normal 0 1 0
    outer loop
      vertex 1 3 -2
      vertex 2.2 3 -1
      vertex 2.2 3 -2
    endloop
  endfacet
  facet normal 0 1 0
    outer loop
      vertex 2.2 3 0.2
      vertex 1 3 -2
      vertex 1 3 10
    endloop
  endfacet
  facet normal 0 1 -0
    outer loop
      vertex 2.2 3 75.4
      vertex 1 3 78.4
      vertex 2.2 3 78.4
    endloop
  endfacet
  facet normal 0 1 0
    outer loop
      vertex 1 3 78.4
      vertex 2.2 3 75.4
      vertex 1 3 75.4
    endloop
  endfacet
  facet normal -1 0 0
    outer loop
      vertex 6.2 3 -2
      vertex 6.2 4.2 2
      vertex 6.2 4.2 -2
    endloop
  endfacet
  facet normal -1 -0 0
    outer loop
      vertex 6.2 4.2 2
      vertex 6.2 3 -2
      vertex 6.2 3 2
    endloop
  endfacet
  facet normal -1 0 0
    outer loop
      vertex 6.2 3 6
      vertex 6.2 4.2 10
      vertex 6.2 4.2 6
    endloop
  endfacet
  facet normal -1 -0 0
    outer loop
      vertex 6.2 4.2 10
      vertex 6.2 3 6
      vertex 6.2 3 10
    endloop
  endfacet
  facet normal 1 -0 0
    outer loop
      vertex 5 3 10
      vertex 5 4.2 0.2
      vertex 5 4.2 10
    endloop
  endfacet
  facet normal 1 0 0
    outer loop
      vertex 5 4.2 0.2
      vertex 5 3 10
      vertex 5 3 0.2
    endloop
  endfacet
  facet normal 1 -0 0
    outer loop
      vertex 5 3 -1
      vertex 5 4.2 -2
      vertex 5 4.2 -1
    endloop
  endfacet
  facet normal 1 0 0
    outer loop
      vertex 5 4.2 -2
      vertex 5 3 -1
      vertex 5 3 -2
    endloop
  endfacet
  facet normal 0 0 -1
    outer loop
      vertex 2.2 3 0.2
      vertex 5 4.2 0.2
      vertex 5 3 0.2
    endloop
  endfacet
  facet normal -0 0 -1
    outer loop
      vertex 5 4.2 0.2
      vertex 2.2 3 0.2
      vertex 2.2 4.2 0.2
    endloop
  endfacet
  facet normal -0 0 1
    outer loop
      vertex 2.2 4.2 -1
      vertex 5 3 -1
      vertex 5 4.2 -1
    endloop
  endfacet
  facet normal 0 0 1
    outer loop
      vertex 5 3 -1
      vertex 2.2 4.2 -1
      vertex 2.2 3 -1
    endloop
  endfacet
  facet normal -1 0 0
    outer loop
      vertex 22.2 2.8 -2
      vertex 22.2 3 0
      vertex 22.2 3 -2
    endloop
  endfacet
  facet normal -1 -0 0
    outer loop
      vertex 22.2 3 0
      vertex 22.2 2.8 -2
      vertex 22.2 3 8
    endloop
  endfacet
  facet normal -1 0 0
    outer loop
      vertex 22.2 2.8 10
      vertex 22.2 3 8
      vertex 22.2 2.8 -2
    endloop
  endfacet
  facet normal -1 0 0
    outer loop
      vertex 22.2 3 8
      vertex 22.2 2.8 10
      vertex 22.2 3 10
    endloop
  endfacet
  facet normal -1 0 0
    outer loop
      vertex 22.2 3 0
      vertex 22.2 4 8
      vertex 22.2 4 0
    endloop
  endfacet
  facet normal -1 -0 0
    outer loop
      vertex 22.2 4 8
      vertex 22.2 3 0
      vertex 22.2 3 8
    endloop
  endfacet
  facet normal 1 -0 0
    outer loop
      vertex 21 2.8 10
      vertex 21 3 8
      vertex 21 3 10
    endloop
  endfacet
  facet normal 1 0 0
    outer loop
      vertex 21 3 8
      vertex 21 2.8 10
      vertex 21 3 4.5
    endloop
  endfacet
  facet normal 1 0 0
    outer loop
      vertex 21 3 4.5
      vertex 21 2.8 10
      vertex 21 3 3.5
    endloop
  endfacet
  facet normal 1 0 0
    outer loop
      vertex 21 2.8 -2
      vertex 21 3 3.5
      vertex 21 2.8 10
    endloop
  endfacet
  facet normal 1 0 0
    outer loop
      vertex 21 3 3.5
      vertex 21 2.8 -2
      vertex 21 3 0
    endloop
  endfacet
  facet normal 1 0 0
    outer loop
      vertex 21 3 0
      vertex 21 2.8 -2
      vertex 21 3 -2
    endloop
  endfacet
  facet normal 1 -0 0
    outer loop
      vertex 21 3 8
      vertex 21 4 4.5
      vertex 21 4 8
    endloop
  endfacet
  facet normal 1 0 0
    outer loop
      vertex 21 4 4.5
      vertex 21 3 8
      vertex 21 3 4.5
    endloop
  endfacet
  facet normal 1 -0 0
    outer loop
      vertex 21 3 3.5
      vertex 21 4 0
      vertex 21 4 3.5
    endloop
  endfacet
  facet normal 1 0 0
    outer loop
      vertex 21 4 0
      vertex 21 3 3.5
      vertex 21 3 0
    endloop
  endfacet
  facet normal 0 1 -0
    outer loop
      vertex 22.2 2.8 -2
      vertex 21 2.8 10
      vertex 22.2 2.8 10
    endloop
  endfacet
  facet normal 0 1 0
    outer loop
      vertex 21 2.8 10
      vertex 22.2 2.8 -2
      vertex 21 2.8 -2
    endloop
  endfacet
  facet normal 0 0 -1
    outer loop
      vertex 20 3 4.5
      vertex 21 4 4.5
      vertex 21 3 4.5
    endloop
  endfacet
  facet normal -0 0 -1
    outer loop
      vertex 21 4 4.5
      vertex 20 3 4.5
      vertex 20 4 4.5
    endloop
  endfacet
  facet normal -0 0 1
    outer loop
      vertex 20 4 3.5
      vertex 21 3 3.5
      vertex 21 4 3.5
    endloop
  endfacet
  facet normal 0 0 1
    outer loop
      vertex 21 3 3.5
      vertex 20 4 3.5
      vertex 20 3 3.5
    endloop
  endfacet
  facet normal -1 0 0
    outer loop
      vertex 20 3 6
      vertex 20 4 8
      vertex 20 4 6
    endloop
  endfacet
  facet normal -1 -0 0
    outer loop
      vertex 20 4 8
      vertex 20 3 6
      vertex 20 3 8
    endloop
  endfacet
  facet normal -1 0 0
    outer loop
      vertex 20 3 0
      vertex 20 4 2
      vertex 20 4 0
    endloop
  endfacet
  facet normal -1 -0 0
    outer loop
      vertex 20 4 2
      vertex 20 3 0
      vertex 20 3 2
    endloop
  endfacet
  facet normal -1 0 0
    outer loop
      vertex 20 3 2
      vertex 20 4 3.5
      vertex 20 4 2
    endloop
  endfacet
  facet normal -1 0 0
    outer loop
      vertex 20 3 2
      vertex 20 3 3.5
      vertex 20 4 3.5
    endloop
  endfacet
  facet normal -1 0 0
    outer loop
      vertex 20 0 2
      vertex 20 3 3.5
      vertex 20 3 2
    endloop
  endfacet
  facet normal -1 -0 0
    outer loop
      vertex 20 3 3.5
      vertex 20 0 2
      vertex 20 3 4.5
    endloop
  endfacet
  facet normal -1 0 0
    outer loop
      vertex 20 0 6
      vertex 20 3 4.5
      vertex 20 0 2
    endloop
  endfacet
  facet normal -1 0 0
    outer loop
      vertex 20 3 4.5
      vertex 20 0 6
      vertex 20 3 6
    endloop
  endfacet
  facet normal -1 0 0
    outer loop
      vertex 20 3 4.5
      vertex 20 4 6
      vertex 20 4 4.5
    endloop
  endfacet
  facet normal -1 -0 0
    outer loop
      vertex 20 4 6
      vertex 20 3 4.5
      vertex 20 3 6
    endloop
  endfacet
  facet normal 0 1 0
    outer loop
      vertex 21 4 8
      vertex 20 4 6
      vertex 20 4 8
    endloop
  endfacet
  facet normal 0 1 -0
    outer loop
      vertex 21 4 4.5
      vertex 20 4 6
      vertex 21 4 8
    endloop
  endfacet
  facet normal 0 1 0
    outer loop
      vertex 20 4 6
      vertex 21 4 4.5
      vertex 20 4 4.5
    endloop
  endfacet
  facet normal 0 1 -0
    outer loop
      vertex 23.2 4 0
      vertex 22.2 4 8
      vertex 23.2 4 8
    endloop
  endfacet
  facet normal 0 1 0
    outer loop
      vertex 22.2 4 8
      vertex 23.2 4 0
      vertex 22.2 4 0
    endloop
  endfacet
  facet normal 0 1 0
    outer loop
      vertex 21 4 3.5
      vertex 20 4 2
      vertex 20 4 3.5
    endloop
  endfacet
  facet normal 0 1 -0
    outer loop
      vertex 21 4 0
      vertex 20 4 2
      vertex 21 4 3.5
    endloop
  endfacet
  facet normal 0 1 0
    outer loop
      vertex 20 4 2
      vertex 21 4 0
      vertex 20 4 0
    endloop
  endfacet
  facet normal 0 1 -0
    outer loop
      vertex 21 3 3.5
      vertex 20 3 4.5
      vertex 21 3 4.5
    endloop
  endfacet
  facet normal 0 1 0
    outer loop
      vertex 20 3 4.5
      vertex 21 3 3.5
      vertex 20 3 3.5
    endloop
  endfacet
  facet normal 0 0 -1
    outer loop
      vertex 20 0 6
      vertex 8 3 6
      vertex 20 3 6
    endloop
  endfacet
  facet normal 0 0 -1
    outer loop
      vertex 8 3 6
      vertex 6.2 3 6
      vertex 8 4.2 6
    endloop
  endfacet
  facet normal 0 0 -1
    outer loop
      vertex 6 0 6
      vertex 8 3 6
      vertex 20 0 6
    endloop
  endfacet
  facet normal -0 0 -1
    outer loop
      vertex 8 3 6
      vertex 6 0 6
      vertex 6.2 3 6
    endloop
  endfacet
  facet normal -0 0 -1
    outer loop
      vertex 6.2 3 6
      vertex 6 0 6
      vertex 6 3 6
    endloop
  endfacet
  facet normal -0 0 -1
    outer loop
      vertex 8 4.2 6
      vertex 6.2 3 6
      vertex 6.2 4.2 6
    endloop
  endfacet
  facet normal 0 0 1
    outer loop
      vertex 8 4.2 2
      vertex 6.2 4.2 2
      vertex 8 3 2
    endloop
  endfacet
  facet normal -0 0 1
    outer loop
      vertex 8 3 2
      vertex 20 0 2
      vertex 20 3 2
    endloop
  endfacet
  facet normal 0 0 1
    outer loop
      vertex 6.2 3 2
      vertex 8 3 2
      vertex 6.2 4.2 2
    endloop
  endfacet
  facet normal 0 0 1
    outer loop
      vertex 6 0 2
      vertex 8 3 2
      vertex 6.2 3 2
    endloop
  endfacet
  facet normal 0 0 1
    outer loop
      vertex 6 0 2
      vertex 6.2 3 2
      vertex 6 3 2
    endloop
  endfacet
  facet normal 0 0 1
    outer loop
      vertex 8 3 2
      vertex 6 0 2
      vertex 20 0 2
    endloop
  endfacet
  facet normal 1 -0 0
    outer loop
      vertex 6 0 6
      vertex 6 3 2
      vertex 6 3 6
    endloop
  endfacet
  facet normal 1 0 0
    outer loop
      vertex 6 3 2
      vertex 6 0 6
      vertex 6 0 2
    endloop
  endfacet
  facet normal 0 -1 0
    outer loop
      vertex 28.6 0 0
      vertex 31.2 0 8
      vertex 28.6 0 8
    endloop
  endfacet
  facet normal 0 -1 -0
    outer loop
      vertex 31.2 0 8
      vertex 28.6 0 0
      vertex 31.2 0 0
    endloop
  endfacet
  facet normal 0 -1 0
    outer loop
      vertex 0 0 98.4
      vertex 3 0 10
      vertex 3 0 98.4
    endloop
  endfacet
  facet normal 0 -1 0
    outer loop
      vertex 20 0 6
      vertex 23.5 0 10
      vertex 3 0 10
    endloop
  endfacet
  facet normal 0 -1 -0
    outer loop
      vertex 23.5 0 10
      vertex 20 0 6
      vertex 23.5 0 8
    endloop
  endfacet
  facet normal 0 -1 0
    outer loop
      vertex 20 0 6
      vertex 3 0 10
      vertex 6 0 6
    endloop
  endfacet
  facet normal 0 -1 0
    outer loop
      vertex 0 0 -2
      vertex 6 0 6
      vertex 3 0 10
    endloop
  endfacet
  facet normal 0 -1 0
    outer loop
      vertex 23.5 0 -2
      vertex 20 0 2
      vertex 6 0 2
    endloop
  endfacet
  facet normal 0 -1 0
    outer loop
      vertex 0 0 -2
      vertex 3 0 10
      vertex 0 0 98.4
    endloop
  endfacet
  facet normal 0 -1 -0
    outer loop
      vertex 6 0 6
      vertex 0 0 -2
      vertex 6 0 2
    endloop
  endfacet
  facet normal 0 -1 0
    outer loop
      vertex 23.5 0 -2
      vertex 6 0 2
      vertex 0 0 -2
    endloop
  endfacet
  facet normal 0 -1 0
    outer loop
      vertex 20 0 2
      vertex 23.5 0 -2
      vertex 23.5 0 0
    endloop
  endfacet
  facet normal 0 -1 0
    outer loop
      vertex 23.5 0 0
      vertex 23.5 0 8
      vertex 20 0 6
    endloop
  endfacet
  facet normal 0 -1 0
    outer loop
      vertex 23.5 0 0
      vertex 20 0 6
      vertex 20 0 2
    endloop
  endfacet
  facet normal 0 -1 0
    outer loop
      vertex 23.5 0 8
      vertex 23.5 0 0
      vertex 26.2 0 8
    endloop
  endfacet
  facet normal 0 -1 -0
    outer loop
      vertex 26.2 0 8
      vertex 23.5 0 0
      vertex 26.2 0 0
    endloop
  endfacet
  facet normal -1 0 0
    outer loop
      vertex 28.6 0 0
      vertex 28.6 1.4 8
      vertex 28.6 1.4 0
    endloop
  endfacet
  facet normal -1 -0 0
    outer loop
      vertex 28.6 1.4 8
      vertex 28.6 0 0
      vertex 28.6 0 8
    endloop
  endfacet
  facet normal -0 0 1
    outer loop
      vertex 23.2 7 8
      vertex 26.2 5.7 8
      vertex 26.2 7 8
    endloop
  endfacet
  facet normal 0 0 1
    outer loop
      vertex 26.2 5.7 8
      vertex 23.5 3 8
      vertex 26.2 1.4 8
    endloop
  endfacet
  facet normal 0 0 1
    outer loop
      vertex 23.5 0 8
      vertex 26.2 1.4 8
      vertex 23.5 3 8
    endloop
  endfacet
  facet normal 0 0 1
    outer loop
      vertex 26.2 5.7 8
      vertex 23.2 7 8
      vertex 23.2 4 8
    endloop
  endfacet
  facet normal 0 0 1
    outer loop
      vertex 26.2 5.7 8
      vertex 23.2 4 8
      vertex 23.5 3 8
    endloop
  endfacet
  facet normal 0 0 1
    outer loop
      vertex 22.2 3 8
      vertex 23.2 4 8
      vertex 22.2 4 8
    endloop
  endfacet
  facet normal 0 0 1
    outer loop
      vertex 23.2 4 8
      vertex 22.2 3 8
      vertex 23.5 3 8
    endloop
  endfacet
  facet normal -0 0 1
    outer loop
      vertex 26.2 5.7 8
      vertex 28.6 1.4 8
      vertex 28.6 5.7 8
    endloop
  endfacet
  facet normal 0 0 1
    outer loop
      vertex 28.6 1.4 8
      vertex 26.2 5.7 8
      vertex 26.2 1.4 8
    endloop
  endfacet
  facet normal 0 0 1
    outer loop
      vertex 28.6 5.7 8
      vertex 31.2 7 8
      vertex 28.6 7 8
    endloop
  endfacet
  facet normal 0 0 1
    outer loop
      vertex 28.6 1.4 8
      vertex 31.2 7 8
      vertex 28.6 5.7 8
    endloop
  endfacet
  facet normal 0 0 1
    outer loop
      vertex 31.2 7 8
      vertex 28.6 1.4 8
      vertex 31.2 0 8
    endloop
  endfacet
  facet normal 0 0 1
    outer loop
      vertex 31.2 0 8
      vertex 28.6 1.4 8
      vertex 28.6 0 8
    endloop
  endfacet
  facet normal 0 0 1
    outer loop
      vertex 26.2 1.4 8
      vertex 23.5 0 8
      vertex 26.2 0 8
    endloop
  endfacet
  facet normal -0 0 1
    outer loop
      vertex 20 4 8
      vertex 21 3 8
      vertex 21 4 8
    endloop
  endfacet
  facet normal 0 0 1
    outer loop
      vertex 21 3 8
      vertex 20 4 8
      vertex 20 3 8
    endloop
  endfacet
  facet normal 0 0 -1
    outer loop
      vertex 22.2 3 0
      vertex 23.2 4 0
      vertex 23.5 3 0
    endloop
  endfacet
  facet normal -0 0 -1
    outer loop
      vertex 23.2 4 0
      vertex 22.2 3 0
      vertex 22.2 4 0
    endloop
  endfacet
  facet normal 0 0 -1
    outer loop
      vertex 23.5 0 0
      vertex 26.2 1.4 0
      vertex 26.2 0 0
    endloop
  endfacet
  facet normal 0 0 -1
    outer loop
      vertex 26.2 1.4 0
      vertex 23.5 3 0
      vertex 26.2 5.7 0
    endloop
  endfacet
  facet normal -0 0 -1
    outer loop
      vertex 26.2 1.4 0
      vertex 23.5 0 0
      vertex 23.5 3 0
    endloop
  endfacet
  facet normal 0 0 -1
    outer loop
      vertex 23.2 4 0
      vertex 26.2 5.7 0
      vertex 23.5 3 0
    endloop
  endfacet
  facet normal 0 0 -1
    outer loop
      vertex 23.2 7 0
      vertex 26.2 5.7 0
      vertex 23.2 4 0
    endloop
  endfacet
  facet normal 0 0 -1
    outer loop
      vertex 26.2 5.7 0
      vertex 23.2 7 0
      vertex 26.2 7 0
    endloop
  endfacet
  facet normal 0 0 -1
    outer loop
      vertex 26.2 1.4 0
      vertex 28.6 5.7 0
      vertex 28.6 1.4 0
    endloop
  endfacet
  facet normal -0 0 -1
    outer loop
      vertex 28.6 5.7 0
      vertex 26.2 1.4 0
      vertex 26.2 5.7 0
    endloop
  endfacet
  facet normal 0 0 -1
    outer loop
      vertex 28.6 1.4 0
      vertex 31.2 0 0
      vertex 28.6 0 0
    endloop
  endfacet
  facet normal 0 0 -1
    outer loop
      vertex 31.2 0 0
      vertex 28.6 1.4 0
      vertex 31.2 7 0
    endloop
  endfacet
  facet normal 0 0 -1
    outer loop
      vertex 28.6 5.7 0
      vertex 31.2 7 0
      vertex 28.6 1.4 0
    endloop
  endfacet
  facet normal -0 0 -1
    outer loop
      vertex 31.2 7 0
      vertex 28.6 5.7 0
      vertex 28.6 7 0
    endloop
  endfacet
  facet normal 0 0 -1
    outer loop
      vertex 20 3 0
      vertex 21 4 0
      vertex 21 3 0
    endloop
  endfacet
  facet normal -0 0 -1
    outer loop
      vertex 21 4 0
      vertex 20 3 0
      vertex 20 4 0
    endloop
  endfacet
  facet normal 1 -0 0
    outer loop
      vertex 26.2 0 8
      vertex 26.2 1.4 0
      vertex 26.2 1.4 8
    endloop
  endfacet
  facet normal 1 0 0
    outer loop
      vertex 26.2 1.4 0
      vertex 26.2 0 8
      vertex 26.2 0 0
    endloop
  endfacet
  facet normal 0 -1 0
    outer loop
      vertex 26.2 1.4 0
      vertex 28.6 1.4 8
      vertex 26.2 1.4 8
    endloop
  endfacet
  facet normal 0 -1 -0
    outer loop
      vertex 28.6 1.4 8
      vertex 26.2 1.4 0
      vertex 28.6 1.4 0
    endloop
  endfacet
  facet normal -1 0 0
    outer loop
      vertex 28.6 5.7 0
      vertex 28.6 7 8
      vertex 28.6 7 0
    endloop
  endfacet
  facet normal -1 -0 0
    outer loop
      vertex 28.6 7 8
      vertex 28.6 5.7 0
      vertex 28.6 5.7 8
    endloop
  endfacet
  facet normal 1 -0 0
    outer loop
      vertex 26.2 5.7 8
      vertex 26.2 7 0
      vertex 26.2 7 8
    endloop
  endfacet
  facet normal 1 0 0
    outer loop
      vertex 26.2 7 0
      vertex 26.2 5.7 8
      vertex 26.2 5.7 0
    endloop
  endfacet
  facet normal 0 1 -0
    outer loop
      vertex 28.6 5.7 0
      vertex 26.2 5.7 8
      vertex 28.6 5.7 8
    endloop
  endfacet
  facet normal 0 1 0
    outer loop
      vertex 26.2 5.7 8
      vertex 28.6 5.7 0
      vertex 26.2 5.7 0
    endloop
  endfacet
  facet normal 1 -0 0
    outer loop
      vertex 8 3 10
      vertex 8 4.2 6
      vertex 8 4.2 10
    endloop
  endfacet
  facet normal 1 0 0
    outer loop
      vertex 8 4.2 6
      vertex 8 3 10
      vertex 8 3 6
    endloop
  endfacet
  facet normal 1 -0 0
    outer loop
      vertex 8 3 2
      vertex 8 4.2 -2
      vertex 8 4.2 2
    endloop
  endfacet
  facet normal 1 0 0
    outer loop
      vertex 8 4.2 -2
      vertex 8 3 2
      vertex 8 3 -2
    endloop
  endfacet
  facet normal 0 0 1
    outer loop
      vertex 1 4.2 10
      vertex 0 4.2 10
      vertex 1 3 10
    endloop
  endfacet
  facet normal 0 0 1
    outer loop
      vertex 2.2 3 10
      vertex 5 3 10
      vertex 5 4.2 10
    endloop
  endfacet
  facet normal 0 0 1
    outer loop
      vertex 2.2 3 10
      vertex 5 4.2 10
      vertex 2.2 4.2 10
    endloop
  endfacet
  facet normal 0 0 1
    outer loop
      vertex 5 3 10
      vertex 2.2 3 10
      vertex 3 1.5 10
    endloop
  endfacet
  facet normal -0 0 1
    outer loop
      vertex 1 3 10
      vertex 3 1.5 10
      vertex 2.2 3 10
    endloop
  endfacet
  facet normal 0 0 1
    outer loop
      vertex 1 3 10
      vertex 0 1.5 10
      vertex 3 1.5 10
    endloop
  endfacet
  facet normal 0 0 1
    outer loop
      vertex 0 1.5 10
      vertex 1 3 10
      vertex 0 4.2 10
    endloop
  endfacet
  facet normal 0 0 1
    outer loop
      vertex 8 4.2 10
      vertex 6.2 4.2 10
      vertex 8 3 10
    endloop
  endfacet
  facet normal 0 0 1
    outer loop
      vertex 21 3 10
      vertex 8 3 10
      vertex 21 2.8 10
    endloop
  endfacet
  facet normal 0 0 1
    outer loop
      vertex 22.2 2.8 10
      vertex 23.5 3 10
      vertex 22.2 3 10
    endloop
  endfacet
  facet normal 0 0 1
    outer loop
      vertex 23.5 3 10
      vertex 22.2 2.8 10
      vertex 23.5 0 10
    endloop
  endfacet
  facet normal -0 0 1
    outer loop
      vertex 21 2.8 10
      vertex 23.5 0 10
      vertex 22.2 2.8 10
    endloop
  endfacet
  facet normal 0 0 1
    outer loop
      vertex 8 3 10
      vertex 23.5 0 10
      vertex 21 2.8 10
    endloop
  endfacet
  facet normal 0 0 1
    outer loop
      vertex 6.2 3 10
      vertex 8 3 10
      vertex 6.2 4.2 10
    endloop
  endfacet
  facet normal 0 0 1
    outer loop
      vertex 3 0 10
      vertex 8 3 10
      vertex 6.2 3 10
    endloop
  endfacet
  facet normal 0 0 1
    outer loop
      vertex 3 0 10
      vertex 6.2 3 10
      vertex 5 3 10
    endloop
  endfacet
  facet normal 0 0 1
    outer loop
      vertex 3 0 10
      vertex 5 3 10
      vertex 3 1.5 10
    endloop
  endfacet
  facet normal 0 0 1
    outer loop
      vertex 8 3 10
      vertex 3 0 10
      vertex 23.5 0 10
    endloop
  endfacet
  facet normal 0 0 -1
    outer loop
      vertex 23.5 0 -2
      vertex 22.2 2.8 -2
      vertex 23.5 3 -2
    endloop
  endfacet
  facet normal 0 0 -1
    outer loop
      vertex 23.5 0 -2
      vertex 21 2.8 -2
      vertex 22.2 2.8 -2
    endloop
  endfacet
  facet normal 0 0 -1
    outer loop
      vertex 21 2.8 -2
      vertex 8 3 -2
      vertex 21 3 -2
    endloop
  endfacet
  facet normal 0 0 -1
    outer loop
      vertex 23.5 0 -2
      vertex 8 3 -2
      vertex 21 2.8 -2
    endloop
  endfacet
  facet normal 0 0 -1
    outer loop
      vertex 8 3 -2
      vertex 6.2 3 -2
      vertex 8 4.2 -2
    endloop
  endfacet
  facet normal 0 0 -1
    outer loop
      vertex 0 0 -2
      vertex 8 3 -2
      vertex 23.5 0 -2
    endloop
  endfacet
  facet normal -0 0 -1
    outer loop
      vertex 8 3 -2
      vertex 0 0 -2
      vertex 6.2 3 -2
    endloop
  endfacet
  facet normal 0 0 -1
    outer loop
      vertex 5 3 -2
      vertex 2.2 3 -2
      vertex 5 4.2 -2
    endloop
  endfacet
  facet normal -0 0 -1
    outer loop
      vertex 6.2 3 -2
      vertex 0 0 -2
      vertex 5 3 -2
    endloop
  endfacet
  facet normal -0 0 -1
    outer loop
      vertex 5 3 -2
      vertex 0 0 -2
      vertex 2.2 3 -2
    endloop
  endfacet
  facet normal -0 0 -1
    outer loop
      vertex 2.2 3 -2
      vertex 0 0 -2
      vertex 1 3 -2
    endloop
  endfacet
  facet normal 0 0 -1
    outer loop
      vertex 0 4.2 -2
      vertex 1 3 -2
      vertex 0 0 -2
    endloop
  endfacet
  facet normal 0 0 -1
    outer loop
      vertex 1 3 -2
      vertex 0 4.2 -2
      vertex 1 4.2 -2
    endloop
  endfacet
  facet normal -0 0 -1
    outer loop
      vertex 23.5 3 -2
      vertex 22.2 2.8 -2
      vertex 22.2 3 -2
    endloop
  endfacet
  facet normal -0 0 -1
    outer loop
      vertex 8 4.2 -2
      vertex 6.2 3 -2
      vertex 6.2 4.2 -2
    endloop
  endfacet
  facet normal -0 0 -1
    outer loop
      vertex 5 4.2 -2
      vertex 2.2 3 -2
      vertex 2.2 4.2 -2
    endloop
  endfacet
  facet normal -1 0 0
    outer loop
      vertex 0 4.2 -2
      vertex 0 1.5 10
      vertex 0 4.2 10
    endloop
  endfacet
  facet normal -1 0 0
    outer loop
      vertex 0 0 -2
      vertex 0 1.5 75.4
      vertex 0 1.5 10
    endloop
  endfacet
  facet normal -1 0 0
    outer loop
      vertex 0 0 98.4
      vertex 0 1.5 75.4
      vertex 0 0 -2
    endloop
  endfacet
  facet normal -1 0 0
    outer loop
      vertex 0 0 -2
      vertex 0 1.5 10
      vertex 0 4.2 -2
    endloop
  endfacet
  facet normal -1 0 0
    outer loop
      vertex 0 1.5 75.4
      vertex 0 0 98.4
      vertex 0 1.5 78.4
    endloop
  endfacet
  facet normal -1 0 0
    outer loop
      vertex 0 1.5 78.4
      vertex 0 0 98.4
      vertex 0 1.5 98.4
    endloop
  endfacet
  facet normal -1 0 0
    outer loop
      vertex 0 1.5 75.4
      vertex 0 4.2 78.4
      vertex 0 4.2 75.4
    endloop
  endfacet
  facet normal -1 -0 0
    outer loop
      vertex 0 4.2 78.4
      vertex 0 1.5 75.4
      vertex 0 1.5 78.4
    endloop
  endfacet
  facet normal 0 1 -0
    outer loop
      vertex 1 4.2 -2
      vertex 0 4.2 10
      vertex 1 4.2 10
    endloop
  endfacet
  facet normal 0 1 0
    outer loop
      vertex 0 4.2 10
      vertex 1 4.2 -2
      vertex 0 4.2 -2
    endloop
  endfacet
  facet normal 0 1 -0
    outer loop
      vertex 8 4.2 6
      vertex 6.2 4.2 10
      vertex 8 4.2 10
    endloop
  endfacet
  facet normal 0 1 0
    outer loop
      vertex 6.2 4.2 10
      vertex 8 4.2 6
      vertex 6.2 4.2 6
    endloop
  endfacet
  facet normal 0 1 -0
    outer loop
      vertex 8 4.2 -2
      vertex 6.2 4.2 2
      vertex 8 4.2 2
    endloop
  endfacet
  facet normal 0 1 0
    outer loop
      vertex 6.2 4.2 2
      vertex 8 4.2 -2
      vertex 6.2 4.2 -2
    endloop
  endfacet
  facet normal 0 1 -0
    outer loop
      vertex 5 4.2 -2
      vertex 2.2 4.2 -1
      vertex 5 4.2 -1
    endloop
  endfacet
  facet normal 0 1 0
    outer loop
      vertex 2.2 4.2 -1
      vertex 5 4.2 -2
      vertex 2.2 4.2 -2
    endloop
  endfacet
  facet normal 0 1 -0
    outer loop
      vertex 5 4.2 0.2
      vertex 2.2 4.2 10
      vertex 5 4.2 10
    endloop
  endfacet
  facet normal 0 1 0
    outer loop
      vertex 2.2 4.2 10
      vertex 5 4.2 0.2
      vertex 2.2 4.2 0.2
    endloop
  endfacet
  facet normal 1 -0 0
    outer loop
      vertex 3 0 98.4
      vertex 3 1.5 78.4
      vertex 3 1.5 98.4
    endloop
  endfacet
  facet normal 1 0 0
    outer loop
      vertex 3 1.5 78.4
      vertex 3 0 98.4
      vertex 3 1.5 75.4
    endloop
  endfacet
  facet normal 1 0 0
    outer loop
      vertex 3 0 10
      vertex 3 1.5 75.4
      vertex 3 0 98.4
    endloop
  endfacet
  facet normal 1 0 0
    outer loop
      vertex 3 1.5 75.4
      vertex 3 0 10
      vertex 3 1.5 10
    endloop
  endfacet
  facet normal 1 -0 0
    outer loop
      vertex 3 1.5 78.4
      vertex 3 4.2 75.4
      vertex 3 4.2 78.4
    endloop
  endfacet
  facet normal 1 0 0
    outer loop
      vertex 3 4.2 75.4
      vertex 3 1.5 78.4
      vertex 3 1.5 75.4
    endloop
  endfacet
  facet normal -0 0 1
    outer loop
      vertex 0 1.5 98.4
      vertex 3 0 98.4
      vertex 3 1.5 98.4
    endloop
  endfacet
  facet normal 0 0 1
    outer loop
      vertex 3 0 98.4
      vertex 0 1.5 98.4
      vertex 0 0 98.4
    endloop
  endfacet
  facet normal 0 1 -0
    outer loop
      vertex 3 1.5 78.4
      vertex 0 1.5 98.4
      vertex 3 1.5 98.4
    endloop
  endfacet
  facet normal 0 1 0
    outer loop
      vertex 0 1.5 98.4
      vertex 3 1.5 78.4
      vertex 0 1.5 78.4
    endloop
  endfacet
  facet normal 0 1 -0
    outer loop
      vertex 3 1.5 10
      vertex 0 1.5 75.4
      vertex 3 1.5 75.4
    endloop
  endfacet
  facet normal 0 1 0
    outer loop
      vertex 0 1.5 75.4
      vertex 3 1.5 10
      vertex 0 1.5 10
    endloop
  endfacet
  facet normal 0 0 1
    outer loop
      vertex 1 4.2 78.4
      vertex 0 4.2 78.4
      vertex 1 3 78.4
    endloop
  endfacet
  facet normal 0 0 1
    outer loop
      vertex 2.2 3 78.4
      vertex 3 4.2 78.4
      vertex 2.2 4.2 78.4
    endloop
  endfacet
  facet normal 0 0 1
    outer loop
      vertex 3 4.2 78.4
      vertex 2.2 3 78.4
      vertex 3 1.5 78.4
    endloop
  endfacet
  facet normal -0 0 1
    outer loop
      vertex 1 3 78.4
      vertex 3 1.5 78.4
      vertex 2.2 3 78.4
    endloop
  endfacet
  facet normal 0 0 1
    outer loop
      vertex 1 3 78.4
      vertex 0 1.5 78.4
      vertex 3 1.5 78.4
    endloop
  endfacet
  facet normal 0 0 1
    outer loop
      vertex 0 1.5 78.4
      vertex 1 3 78.4
      vertex 0 4.2 78.4
    endloop
  endfacet
  facet normal 0 0 -1
    outer loop
      vertex 3 1.5 75.4
      vertex 2.2 3 75.4
      vertex 3 4.2 75.4
    endloop
  endfacet
  facet normal 0 0 -1
    outer loop
      vertex 3 1.5 75.4
      vertex 1 3 75.4
      vertex 2.2 3 75.4
    endloop
  endfacet
  facet normal 0 0 -1
    outer loop
      vertex 0 1.5 75.4
      vertex 1 3 75.4
      vertex 3 1.5 75.4
    endloop
  endfacet
  facet normal 0 0 -1
    outer loop
      vertex 0 4.2 75.4
      vertex 1 3 75.4
      vertex 0 1.5 75.4
    endloop
  endfacet
  facet normal 0 0 -1
    outer loop
      vertex 1 3 75.4
      vertex 0 4.2 75.4
      vertex 1 4.2 75.4
    endloop
  endfacet
  facet normal -0 0 -1
    outer loop
      vertex 3 4.2 75.4
      vertex 2.2 3 75.4
      vertex 2.2 4.2 75.4
    endloop
  endfacet
  facet normal 0 1 -0
    outer loop
      vertex 1 4.2 75.4
      vertex 0 4.2 78.4
      vertex 1 4.2 78.4
    endloop
  endfacet
  facet normal 0 1 0
    outer loop
      vertex 0 4.2 78.4
      vertex 1 4.2 75.4
      vertex 0 4.2 75.4
    endloop
  endfacet
  facet normal 0 1 -0
    outer loop
      vertex 3 4.2 75.4
      vertex 2.2 4.2 78.4
      vertex 3 4.2 78.4
    endloop
  endfacet
  facet normal 0 1 0
    outer loop
      vertex 2.2 4.2 78.4
      vertex 3 4.2 75.4
      vertex 2.2 4.2 75.4
    endloop
  endfacet
  facet normal -1 0 0
    outer loop
      vertex 23.2 4 0
      vertex 23.2 7 8
      vertex 23.2 7 0
    endloop
  endfacet
  facet normal -1 -0 0
    outer loop
      vertex 23.2 7 8
      vertex 23.2 4 0
      vertex 23.2 4 8
    endloop
  endfacet
  facet normal 1 -0 0
    outer loop
      vertex 23.5 0 10
      vertex 23.5 3 8
      vertex 23.5 3 10
    endloop
  endfacet
  facet normal 1 0 0
    outer loop
      vertex 23.5 3 8
      vertex 23.5 0 10
      vertex 23.5 0 8
    endloop
  endfacet
  facet normal 1 -0 0
    outer loop
      vertex 23.5 0 0
      vertex 23.5 3 -2
      vertex 23.5 3 0
    endloop
  endfacet
  facet normal 1 0 0
    outer loop
      vertex 23.5 3 -2
      vertex 23.5 0 0
      vertex 23.5 0 -2
    endloop
  endfacet
  facet normal 0 1 -0
    outer loop
      vertex 23.5 3 8
      vertex 22.2 3 10
      vertex 23.5 3 10
    endloop
  endfacet
  facet normal 0 1 0
    outer loop
      vertex 22.2 3 10
      vertex 23.5 3 8
      vertex 22.2 3 8
    endloop
  endfacet
  facet normal 0 1 -0
    outer loop
      vertex 23.5 3 -2
      vertex 22.2 3 0
      vertex 23.5 3 0
    endloop
  endfacet
  facet normal 0 1 0
    outer loop
      vertex 22.2 3 0
      vertex 23.5 3 -2
      vertex 22.2 3 -2
    endloop
  endfacet
  facet normal 0 1 0
    outer loop
      vertex 21 3 0
      vertex 21 3 -2
      vertex 20 3 0
    endloop
  endfacet
  facet normal 0 1 -0
    outer loop
      vertex 20 3 0
      vertex 8 3 2
      vertex 20 3 2
    endloop
  endfacet
  facet normal 0 1 0
    outer loop
      vertex 8 3 -2
      vertex 20 3 0
      vertex 21 3 -2
    endloop
  endfacet
  facet normal 0 1 0
    outer loop
      vertex 20 3 0
      vertex 8 3 -2
      vertex 8 3 2
    endloop
  endfacet
  facet normal 0 1 0
    outer loop
      vertex 20 3 8
      vertex 21 3 10
      vertex 21 3 8
    endloop
  endfacet
  facet normal 0 1 0
    outer loop
      vertex 21 3 10
      vertex 20 3 8
      vertex 8 3 10
    endloop
  endfacet
  facet normal 0 1 0
    outer loop
      vertex 8 3 6
      vertex 20 3 8
      vertex 20 3 6
    endloop
  endfacet
  facet normal 0 1 0
    outer loop
      vertex 20 3 8
      vertex 8 3 6
      vertex 8 3 10
    endloop
  endfacet
  facet normal 1 -0 0
    outer loop
      vertex 31.2 0 8
      vertex 31.2 7 0
      vertex 31.2 7 8
    endloop
  endfacet
  facet normal 1 0 0
    outer loop
      vertex 31.2 7 0
      vertex 31.2 0 8
      vertex 31.2 0 0
    endloop
  endfacet
  facet normal 0 1 -0
    outer loop
      vertex 26.2 7 0
      vertex 23.2 7 8
      vertex 26.2 7 8
    endloop
  endfacet
  facet normal 0 1 0
    outer loop
      vertex 23.2 7 8
      vertex 26.2 7 0
      vertex 23.2 7 0
    endloop
  endfacet
  facet normal 0 1 -0
    outer loop
      vertex 31.2 7 0
      vertex 28.6 7 8
      vertex 31.2 7 8
    endloop
  endfacet
  facet normal 0 1 0
    outer loop
      vertex 28.6 7 8
      vertex 31.2 7 0
      vertex 28.6 7 0
    endloop
  endfacet
endsolid OpenSCAD_Model
